<mxfile host="65bd71144e">
    <diagram id="NkEvDrXUQuuK_nOL2rht" name="Page-1">
        <mxGraphModel dx="1790" dy="1159" grid="0" gridSize="10" guides="1" tooltips="1" connect="1" arrows="1" fold="1" page="1" pageScale="1" pageWidth="850" pageHeight="1100" background="#FFFFFF" math="0" shadow="0">
            <root>
                <mxCell id="0"/>
                <mxCell id="1" parent="0"/>
                <mxCell id="89" value="" style="rounded=0;whiteSpace=wrap;html=1;strokeColor=#FFFFFF;strokeWidth=2;fontColor=#070B1D;fillColor=none;gradientColor=none;" parent="1" vertex="1">
                    <mxGeometry x="10" y="16" width="837" height="938" as="geometry"/>
                </mxCell>
                <mxCell id="65" value="ST{AU}CKTION" style="shape=umlFrame;whiteSpace=wrap;html=1;width=120;height=30;boundedLbl=1;verticalAlign=middle;align=left;spacingLeft=5;strokeWidth=2;swimlaneFillColor=none;perimeterSpacing=1;strokeColor=#070B1D;" parent="1" vertex="1">
                    <mxGeometry x="216" y="52" width="504" height="879" as="geometry"/>
                </mxCell>
                <mxCell id="4" value="&lt;font color=&quot;#070b1d&quot;&gt;A1 - &amp;lt;&amp;lt;Abstract General User&amp;gt;&amp;gt;&lt;br&gt;&lt;/font&gt;" style="shape=umlActor;verticalLabelPosition=bottom;verticalAlign=top;html=1;strokeColor=#070B1D;strokeWidth=2;fillColor=#070B1D;gradientColor=none;" parent="1" vertex="1">
                    <mxGeometry x="87" y="171" width="30" height="60" as="geometry"/>
                </mxCell>
                <mxCell id="16" value="U5 - Manage all user information" style="ellipse;whiteSpace=wrap;html=1;strokeColor=#000000;strokeWidth=2;fontColor=#070B1D;fillColor=none;gradientColor=none;" parent="1" vertex="1">
                    <mxGeometry x="330" y="271" width="148" height="49" as="geometry"/>
                </mxCell>
                <mxCell id="20" value="U4 - Manage own user information" style="ellipse;whiteSpace=wrap;html=1;strokeColor=#000000;strokeWidth=2;fontColor=#070B1D;fillColor=none;gradientColor=none;" parent="1" vertex="1">
                    <mxGeometry x="501" y="225" width="156" height="58.5" as="geometry"/>
                </mxCell>
                <mxCell id="21" value="U11 -&amp;nbsp;Money transfer" style="ellipse;whiteSpace=wrap;html=1;strokeColor=#000000;strokeWidth=2;fontColor=#070B1D;fillColor=none;gradientColor=none;" parent="1" vertex="1">
                    <mxGeometry x="551" y="492" width="133" height="50" as="geometry"/>
                </mxCell>
                <mxCell id="24" value="U14 -&amp;nbsp; Upload" style="ellipse;whiteSpace=wrap;html=1;strokeColor=#000000;strokeWidth=2;fontColor=#070B1D;fillColor=none;gradientColor=none;" parent="1" vertex="1">
                    <mxGeometry x="544" y="761" width="129" height="59" as="geometry"/>
                </mxCell>
                <mxCell id="28" value="U2 - Login" style="ellipse;whiteSpace=wrap;html=1;strokeColor=#000000;strokeWidth=2;fontColor=#070B1D;fillColor=none;gradientColor=none;" parent="1" vertex="1">
                    <mxGeometry x="315" y="147" width="109" height="49" as="geometry"/>
                </mxCell>
                <mxCell id="29" value="U3 - Logout" style="ellipse;whiteSpace=wrap;html=1;strokeColor=#000000;strokeWidth=2;fontColor=#070B1D;fillColor=none;gradientColor=none;" parent="1" vertex="1">
                    <mxGeometry x="403" y="189" width="109" height="49" as="geometry"/>
                </mxCell>
                <mxCell id="31" value="U9 -&amp;nbsp;Bid for photo" style="ellipse;whiteSpace=wrap;html=1;strokeColor=#000000;strokeWidth=2;fontColor=#070B1D;fillColor=none;gradientColor=none;" parent="1" vertex="1">
                    <mxGeometry x="338" y="491" width="126.5" height="62" as="geometry"/>
                </mxCell>
                <mxCell id="33" value="&lt;font color=&quot;#070b1d&quot;&gt;A8 - Bank&lt;br&gt;&lt;/font&gt;" style="shape=umlActor;verticalLabelPosition=bottom;verticalAlign=top;html=1;strokeColor=#070B1D;strokeWidth=2;fillColor=#070B1D;gradientColor=none;" parent="1" vertex="1">
                    <mxGeometry x="766" y="603" width="30" height="60" as="geometry"/>
                </mxCell>
                <mxCell id="34" value="&lt;font color=&quot;#070b1d&quot;&gt;A7 - Google Api&lt;br&gt;&lt;/font&gt;" style="shape=umlActor;verticalLabelPosition=bottom;verticalAlign=top;html=1;strokeColor=#070B1D;strokeWidth=2;fillColor=#070B1D;gradientColor=none;" parent="1" vertex="1">
                    <mxGeometry x="761" y="436" width="30" height="60" as="geometry"/>
                </mxCell>
                <mxCell id="38" value="&lt;font color=&quot;#070b1d&quot;&gt;A3 - System Admin&lt;br&gt;&lt;/font&gt;" style="shape=umlActor;verticalLabelPosition=bottom;verticalAlign=top;html=1;strokeColor=#070B1D;strokeWidth=2;fillColor=#070B1D;gradientColor=none;" parent="1" vertex="1">
                    <mxGeometry x="135" y="308" width="30" height="60" as="geometry"/>
                </mxCell>
                <mxCell id="43" value="U10 -&amp;nbsp;Buy photo" style="ellipse;whiteSpace=wrap;html=1;strokeColor=#000000;strokeWidth=2;fontColor=#070B1D;fillColor=none;gradientColor=none;" parent="1" vertex="1">
                    <mxGeometry x="334" y="563" width="124.5" height="62" as="geometry"/>
                </mxCell>
                <mxCell id="48" value="U13 - Vote" style="ellipse;whiteSpace=wrap;html=1;strokeColor=#000000;strokeWidth=2;fontColor=#070B1D;fillColor=none;gradientColor=none;" parent="1" vertex="1">
                    <mxGeometry x="561" y="642.5" width="123" height="65" as="geometry"/>
                </mxCell>
                <mxCell id="50" value="U12 - Manage watermarked photo" style="ellipse;whiteSpace=wrap;html=1;strokeColor=#000000;strokeWidth=2;fontColor=#070B1D;fillColor=none;gradientColor=none;" parent="1" vertex="1">
                    <mxGeometry x="271" y="656" width="173" height="69.5" as="geometry"/>
                </mxCell>
                <mxCell id="69" value="U15 - Validate photo&lt;br&gt;content" style="ellipse;whiteSpace=wrap;html=1;strokeColor=#000000;strokeWidth=2;fontColor=#070B1D;fillColor=none;gradientColor=none;" parent="1" vertex="1">
                    <mxGeometry x="312" y="770.5" width="132" height="62.5" as="geometry"/>
                </mxCell>
                <mxCell id="75" value="&lt;font color=&quot;#070b1d&quot;&gt;A5 - Validator&lt;br&gt;&lt;/font&gt;" style="shape=umlActor;verticalLabelPosition=bottom;verticalAlign=top;html=1;strokeColor=#070B1D;strokeWidth=2;fillColor=#070B1D;gradientColor=none;" parent="1" vertex="1">
                    <mxGeometry x="141" y="833" width="30" height="60" as="geometry"/>
                </mxCell>
                <mxCell id="86" value="" style="endArrow=none;html=1;rounded=1;strokeColor=#000000;fontColor=#070B1D;exitX=1;exitY=0.5;exitDx=0;exitDy=0;entryX=0;entryY=0.3333333333333333;entryDx=0;entryDy=0;entryPerimeter=0;" parent="1" source="43" target="33" edge="1">
                    <mxGeometry width="50" height="50" relative="1" as="geometry">
                        <mxPoint x="475" y="767.5" as="sourcePoint"/>
                        <mxPoint x="525" y="717.5" as="targetPoint"/>
                    </mxGeometry>
                </mxCell>
                <mxCell id="91" value="" style="endArrow=none;html=1;strokeColor=#000000;entryX=1;entryY=0.5;entryDx=0;entryDy=0;exitX=0;exitY=0.3333333333333333;exitDx=0;exitDy=0;exitPerimeter=0;" parent="1" source="128" target="24" edge="1">
                    <mxGeometry width="50" height="50" relative="1" as="geometry">
                        <mxPoint x="602" y="387.5" as="sourcePoint"/>
                        <mxPoint x="652" y="337.5" as="targetPoint"/>
                    </mxGeometry>
                </mxCell>
                <mxCell id="93" value="" style="endArrow=none;html=1;strokeColor=#000000;entryX=1;entryY=1;entryDx=0;entryDy=0;exitX=0;exitY=0.3333333333333333;exitDx=0;exitDy=0;exitPerimeter=0;" parent="1" source="33" target="21" edge="1">
                    <mxGeometry width="50" height="50" relative="1" as="geometry">
                        <mxPoint x="746" y="649" as="sourcePoint"/>
                        <mxPoint x="553.9999999999989" y="641" as="targetPoint"/>
                    </mxGeometry>
                </mxCell>
                <mxCell id="94" value="" style="endArrow=none;html=1;strokeColor=#000000;exitX=0;exitY=0.5;exitDx=0;exitDy=0;entryX=1;entryY=0.3333333333333333;entryDx=0;entryDy=0;entryPerimeter=0;" parent="1" source="28" edge="1" target="4">
                    <mxGeometry width="50" height="50" relative="1" as="geometry">
                        <mxPoint x="239" y="194.5" as="sourcePoint"/>
                        <mxPoint x="102" y="193" as="targetPoint"/>
                    </mxGeometry>
                </mxCell>
                <mxCell id="95" value="" style="endArrow=none;html=1;strokeColor=#000000;exitX=0;exitY=0.5;exitDx=0;exitDy=0;entryX=1;entryY=0.3333333333333333;entryDx=0;entryDy=0;entryPerimeter=0;" parent="1" source="29" edge="1" target="4">
                    <mxGeometry width="50" height="50" relative="1" as="geometry">
                        <mxPoint x="239" y="195.5" as="sourcePoint"/>
                        <mxPoint x="100" y="194" as="targetPoint"/>
                    </mxGeometry>
                </mxCell>
                <mxCell id="96" value="" style="endArrow=none;html=1;strokeColor=#000000;exitX=0;exitY=0.5;exitDx=0;exitDy=0;entryX=1;entryY=0.3333333333333333;entryDx=0;entryDy=0;entryPerimeter=0;" parent="1" source="20" edge="1" target="4">
                    <mxGeometry width="50" height="50" relative="1" as="geometry">
                        <mxPoint x="241" y="195.5" as="sourcePoint"/>
                        <mxPoint x="101" y="194" as="targetPoint"/>
                    </mxGeometry>
                </mxCell>
                <mxCell id="97" value="" style="endArrow=none;html=1;strokeColor=#000000;entryX=1;entryY=0.3333333333333333;entryDx=0;entryDy=0;exitX=0;exitY=0.5;exitDx=0;exitDy=0;entryPerimeter=0;" parent="1" source="16" edge="1" target="38">
                    <mxGeometry width="50" height="50" relative="1" as="geometry">
                        <mxPoint x="324" y="318.5" as="sourcePoint"/>
                        <mxPoint x="169.99999999999886" y="317" as="targetPoint"/>
                    </mxGeometry>
                </mxCell>
                <mxCell id="98" value="" style="endArrow=none;html=1;strokeColor=#000000;entryX=1;entryY=0.3333333333333333;entryDx=0;entryDy=0;exitX=0;exitY=0.5;exitDx=0;exitDy=0;entryPerimeter=0;" parent="1" source="69" edge="1" target="75">
                    <mxGeometry width="50" height="50" relative="1" as="geometry">
                        <mxPoint x="324" y="448.5" as="sourcePoint"/>
                        <mxPoint x="169.99999999999886" y="447" as="targetPoint"/>
                    </mxGeometry>
                </mxCell>
                <mxCell id="99" value="" style="endArrow=none;html=1;strokeColor=#000000;entryX=1;entryY=0.3333333333333333;entryDx=0;entryDy=0;exitX=0;exitY=0.5;exitDx=0;exitDy=0;entryPerimeter=0;" parent="1" source="50" edge="1" target="120">
                    <mxGeometry width="50" height="50" relative="1" as="geometry">
                        <mxPoint x="324" y="576.5" as="sourcePoint"/>
                        <mxPoint x="169.99999999999886" y="575" as="targetPoint"/>
                    </mxGeometry>
                </mxCell>
                <mxCell id="101" value="" style="endArrow=none;html=1;strokeColor=#000000;entryX=1;entryY=0.3333333333333333;entryDx=0;entryDy=0;exitX=0;exitY=0.5;exitDx=0;exitDy=0;entryPerimeter=0;" parent="1" source="31" edge="1" target="120">
                    <mxGeometry width="50" height="50" relative="1" as="geometry">
                        <mxPoint x="324" y="711.5" as="sourcePoint"/>
                        <mxPoint x="169.99999999999955" y="737.9999999999998" as="targetPoint"/>
                    </mxGeometry>
                </mxCell>
                <mxCell id="102" value="" style="endArrow=none;html=1;strokeColor=#000000;entryX=1;entryY=0.3333333333333333;entryDx=0;entryDy=0;exitX=0;exitY=0.5;exitDx=0;exitDy=0;entryPerimeter=0;" parent="1" source="43" edge="1" target="120">
                    <mxGeometry width="50" height="50" relative="1" as="geometry">
                        <mxPoint x="324" y="712.5" as="sourcePoint"/>
                        <mxPoint x="169.99999999999955" y="737.9999999999998" as="targetPoint"/>
                    </mxGeometry>
                </mxCell>
                <mxCell id="103" value="U1 - Register" style="ellipse;whiteSpace=wrap;html=1;strokeColor=#000000;strokeWidth=2;fontColor=#070B1D;fillColor=none;gradientColor=none;" parent="1" vertex="1">
                    <mxGeometry x="376" y="81.5" width="109" height="49" as="geometry"/>
                </mxCell>
                <mxCell id="105" value="&lt;font color=&quot;#070b1d&quot;&gt;A2 - Non Registered User&lt;br&gt;&lt;/font&gt;" style="shape=umlActor;verticalLabelPosition=bottom;verticalAlign=top;html=1;strokeColor=#070B1D;strokeWidth=2;fillColor=#070B1D;gradientColor=none;" vertex="1" parent="1">
                    <mxGeometry x="123" y="76" width="30" height="60" as="geometry"/>
                </mxCell>
                <mxCell id="106" value="" style="endArrow=none;html=1;strokeColor=#000000;exitX=-0.005;exitY=0.407;exitDx=0;exitDy=0;entryX=1;entryY=0.3333333333333333;entryDx=0;entryDy=0;entryPerimeter=0;exitPerimeter=0;" edge="1" parent="1" source="103" target="105">
                    <mxGeometry width="50" height="50" relative="1" as="geometry">
                        <mxPoint x="348.99999999999864" y="54" as="sourcePoint"/>
                        <mxPoint x="104" y="116.5" as="targetPoint"/>
                    </mxGeometry>
                </mxCell>
                <mxCell id="112" value="" style="edgeStyle=none;html=1;endSize=12;endArrow=block;endFill=0;strokeColor=#000000;exitX=0;exitY=0.3333333333333333;exitDx=0;exitDy=0;exitPerimeter=0;" edge="1" parent="1" source="38">
                    <mxGeometry width="160" relative="1" as="geometry">
                        <mxPoint x="-78" y="284.5" as="sourcePoint"/>
                        <mxPoint x="112" y="259" as="targetPoint"/>
                        <Array as="points">
                            <mxPoint x="112" y="308"/>
                        </Array>
                    </mxGeometry>
                </mxCell>
                <mxCell id="114" value="" style="edgeStyle=none;html=1;endSize=12;endArrow=block;endFill=0;strokeColor=#000000;exitX=0;exitY=0.3333333333333333;exitDx=0;exitDy=0;exitPerimeter=0;" edge="1" parent="1" source="120">
                    <mxGeometry width="160" relative="1" as="geometry">
                        <mxPoint x="130" y="506" as="sourcePoint"/>
                        <mxPoint x="89" y="260" as="targetPoint"/>
                        <Array as="points">
                            <mxPoint x="92" y="550"/>
                        </Array>
                    </mxGeometry>
                </mxCell>
                <mxCell id="115" value="" style="edgeStyle=none;html=1;endSize=12;endArrow=block;endFill=0;strokeColor=#000000;exitX=0;exitY=0.3333333333333333;exitDx=0;exitDy=0;exitPerimeter=0;" edge="1" parent="1" source="75">
                    <mxGeometry width="160" relative="1" as="geometry">
                        <mxPoint x="144" y="645" as="sourcePoint"/>
                        <mxPoint x="67" y="263" as="targetPoint"/>
                        <Array as="points">
                            <mxPoint x="71" y="808"/>
                        </Array>
                    </mxGeometry>
                </mxCell>
                <mxCell id="117" value="" style="endArrow=none;html=1;rounded=1;strokeColor=#000000;fontColor=#070B1D;exitX=1;exitY=0.5;exitDx=0;exitDy=0;entryX=0;entryY=0.3333333333333333;entryDx=0;entryDy=0;entryPerimeter=0;" edge="1" parent="1" source="31" target="33">
                    <mxGeometry width="50" height="50" relative="1" as="geometry">
                        <mxPoint x="452.00000000001137" y="697.5000000000002" as="sourcePoint"/>
                        <mxPoint x="741" y="715" as="targetPoint"/>
                    </mxGeometry>
                </mxCell>
                <mxCell id="120" value="&lt;font color=&quot;#070b1d&quot;&gt;A4 - Registered User&lt;br&gt;&lt;/font&gt;" style="shape=umlActor;verticalLabelPosition=bottom;verticalAlign=top;html=1;strokeColor=#070B1D;strokeWidth=2;fillColor=#070B1D;gradientColor=none;" vertex="1" parent="1">
                    <mxGeometry x="135" y="550" width="30" height="60" as="geometry"/>
                </mxCell>
                <mxCell id="126" value="&lt;font color=&quot;#000000&quot;&gt;&amp;lt;&amp;lt; include &amp;gt;&amp;gt;&lt;/font&gt;" style="text;html=1;align=center;verticalAlign=middle;resizable=0;points=[];autosize=1;strokeColor=none;fillColor=none;" vertex="1" parent="1">
                    <mxGeometry x="453" y="805" width="91" height="26" as="geometry"/>
                </mxCell>
                <mxCell id="127" value="&lt;font color=&quot;#000000&quot;&gt;&amp;lt;&amp;lt; include &amp;gt;&amp;gt;&lt;/font&gt;" style="text;html=1;align=center;verticalAlign=middle;resizable=0;points=[];autosize=1;strokeColor=none;fillColor=none;" vertex="1" parent="1">
                    <mxGeometry x="494" y="725.5" width="91" height="26" as="geometry"/>
                </mxCell>
                <mxCell id="128" value="&lt;font color=&quot;#070b1d&quot;&gt;A9 - Geolocation API&lt;br&gt;&lt;/font&gt;" style="shape=umlActor;verticalLabelPosition=bottom;verticalAlign=top;html=1;strokeColor=#070B1D;strokeWidth=2;fillColor=#070B1D;gradientColor=none;" vertex="1" parent="1">
                    <mxGeometry x="766" y="771" width="30" height="60" as="geometry"/>
                </mxCell>
                <mxCell id="130" value="U6 - Request to create location" style="ellipse;whiteSpace=wrap;html=1;strokeColor=#000000;strokeWidth=2;fontColor=#070B1D;fillColor=none;gradientColor=none;" vertex="1" parent="1">
                    <mxGeometry x="338" y="336" width="149" height="63" as="geometry"/>
                </mxCell>
                <mxCell id="131" value="U16 -&amp;nbsp;Approve location" style="ellipse;whiteSpace=wrap;html=1;strokeColor=#000000;strokeWidth=2;fontColor=#070B1D;fillColor=none;gradientColor=none;" vertex="1" parent="1">
                    <mxGeometry x="332.5" y="855.25" width="132" height="62.5" as="geometry"/>
                </mxCell>
                <mxCell id="135" value="" style="endArrow=none;html=1;strokeColor=#000000;entryX=1;entryY=0.3333333333333333;entryDx=0;entryDy=0;exitX=-0.002;exitY=0.591;exitDx=0;exitDy=0;entryPerimeter=0;exitPerimeter=0;" edge="1" parent="1" source="131" target="75">
                    <mxGeometry width="50" height="50" relative="1" as="geometry">
                        <mxPoint x="468.49999999999864" y="911.25" as="sourcePoint"/>
                        <mxPoint x="175" y="867.9999999999998" as="targetPoint"/>
                    </mxGeometry>
                </mxCell>
                <mxCell id="137" value="U8 -&amp;nbsp;Display map" style="ellipse;whiteSpace=wrap;html=1;strokeColor=#000000;strokeWidth=2;fontColor=#070B1D;fillColor=none;gradientColor=none;" vertex="1" parent="1">
                    <mxGeometry x="344" y="423" width="109" height="49" as="geometry"/>
                </mxCell>
                <mxCell id="138" value="" style="endArrow=none;html=1;strokeColor=#000000;exitX=0;exitY=0.5;exitDx=0;exitDy=0;entryX=1;entryY=0.3333333333333333;entryDx=0;entryDy=0;entryPerimeter=0;" edge="1" parent="1" source="137" target="120">
                    <mxGeometry width="50" height="50" relative="1" as="geometry">
                        <mxPoint x="345.9999999999877" y="507" as="sourcePoint"/>
                        <mxPoint x="163" y="569" as="targetPoint"/>
                    </mxGeometry>
                </mxCell>
                <mxCell id="139" value="" style="endArrow=none;html=1;strokeColor=#000000;exitX=1;exitY=0.5;exitDx=0;exitDy=0;entryX=0;entryY=0.3333333333333333;entryDx=0;entryDy=0;entryPerimeter=0;" edge="1" parent="1" source="137" target="34">
                    <mxGeometry width="50" height="50" relative="1" as="geometry">
                        <mxPoint x="353.9999999999877" y="464.5" as="sourcePoint"/>
                        <mxPoint x="174.99999999999955" y="580" as="targetPoint"/>
                    </mxGeometry>
                </mxCell>
                <mxCell id="140" value="" style="html=1;labelBackgroundColor=#ffffff;startArrow=none;startFill=0;startSize=6;endArrow=classic;endFill=1;endSize=6;jettySize=auto;orthogonalLoop=1;strokeWidth=1;dashed=1;fontSize=14;strokeColor=#000000;fontColor=#000000;exitX=0.969;exitY=0.688;exitDx=0;exitDy=0;exitPerimeter=0;entryX=0.047;entryY=0.315;entryDx=0;entryDy=0;entryPerimeter=0;" edge="1" parent="1" source="50" target="24">
                    <mxGeometry width="60" height="60" relative="1" as="geometry">
                        <mxPoint x="470" y="765" as="sourcePoint"/>
                        <mxPoint x="530" y="705" as="targetPoint"/>
                    </mxGeometry>
                </mxCell>
                <mxCell id="142" value="" style="html=1;labelBackgroundColor=#ffffff;startArrow=none;startFill=0;startSize=6;endArrow=classic;endFill=1;endSize=6;jettySize=auto;orthogonalLoop=1;strokeWidth=1;dashed=1;fontSize=14;strokeColor=#000000;fontColor=#000000;exitX=0;exitY=0.5;exitDx=0;exitDy=0;entryX=1;entryY=0.5;entryDx=0;entryDy=0;" edge="1" parent="1" source="24" target="69">
                    <mxGeometry width="60" height="60" relative="1" as="geometry">
                        <mxPoint x="489.63700000000017" y="726.816" as="sourcePoint"/>
                        <mxPoint x="569.6829287943574" y="778.3025633899056" as="targetPoint"/>
                    </mxGeometry>
                </mxCell>
                <mxCell id="144" value="" style="html=1;labelBackgroundColor=#ffffff;startArrow=none;startFill=0;startSize=6;endArrow=classic;endFill=1;endSize=6;jettySize=auto;orthogonalLoop=1;strokeWidth=1;dashed=1;fontSize=14;strokeColor=#000000;fontColor=#000000;exitX=1;exitY=0.5;exitDx=0;exitDy=0;entryX=0;entryY=0.5;entryDx=0;entryDy=0;" edge="1" parent="1" source="50" target="48">
                    <mxGeometry width="60" height="60" relative="1" as="geometry">
                        <mxPoint x="443.99699999999973" y="598.9960000000001" as="sourcePoint"/>
                        <mxPoint x="521.4230000000001" y="687.2650000000001" as="targetPoint"/>
                    </mxGeometry>
                </mxCell>
                <mxCell id="145" value="&lt;font color=&quot;#000000&quot;&gt;&amp;lt;&amp;lt; include &amp;gt;&amp;gt;&lt;/font&gt;" style="text;html=1;align=center;verticalAlign=middle;resizable=0;points=[];autosize=1;strokeColor=none;fillColor=none;" vertex="1" parent="1">
                    <mxGeometry x="453" y="656.0000000000001" width="91" height="26" as="geometry"/>
                </mxCell>
                <mxCell id="146" value="" style="endArrow=none;html=1;strokeColor=#000000;exitX=0;exitY=0.5;exitDx=0;exitDy=0;entryX=1;entryY=0.3333333333333333;entryDx=0;entryDy=0;entryPerimeter=0;" edge="1" parent="1" source="130" target="120">
                    <mxGeometry width="50" height="50" relative="1" as="geometry">
                        <mxPoint x="329.9999999999877" y="410.25" as="sourcePoint"/>
                        <mxPoint x="150.99999999999955" y="525.75" as="targetPoint"/>
                    </mxGeometry>
                </mxCell>
                <mxCell id="147" value="&lt;font color=&quot;#070b1d&quot;&gt;A6 - Timer&lt;br&gt;&lt;/font&gt;" style="shape=umlActor;verticalLabelPosition=bottom;verticalAlign=top;html=1;strokeColor=#070B1D;strokeWidth=2;fillColor=#070B1D;gradientColor=none;" vertex="1" parent="1">
                    <mxGeometry x="761" y="330" width="30" height="60" as="geometry"/>
                </mxCell>
                <mxCell id="151" value="U7 -&amp;nbsp;&amp;nbsp;Manage auction time" style="ellipse;whiteSpace=wrap;html=1;strokeColor=#000000;strokeWidth=2;fontColor=#070B1D;fillColor=none;gradientColor=none;" vertex="1" parent="1">
                    <mxGeometry x="515" y="323.5" width="156" height="58.5" as="geometry"/>
                </mxCell>
                <mxCell id="155" value="" style="endArrow=none;html=1;strokeColor=#000000;exitX=0;exitY=0.3333333333333333;exitDx=0;exitDy=0;entryX=1;entryY=0.5;entryDx=0;entryDy=0;exitPerimeter=0;" edge="1" parent="1" source="147" target="151">
                    <mxGeometry width="50" height="50" relative="1" as="geometry">
                        <mxPoint x="948.9999999999882" y="325.5" as="sourcePoint"/>
                        <mxPoint x="663" y="303" as="targetPoint"/>
                    </mxGeometry>
                </mxCell>
            </root>
        </mxGraphModel>
    </diagram>
</mxfile>